<svg width="160" height="48" viewBox="0 0 160 48" fill="none" xmlns="http://www.w3.org/2000/svg">
<path d="M20 17H16V23H20V17Z" fill="black"/>
<path d="M32 17H28V23H32V17Z" fill="black"/>
<path d="M26 17H22V23H26V17Z" fill="black"/>
<path d="M20 25H16V31H20V25Z" fill="black"/>
<path d="M32 25H28V31H32V25Z" fill="black"/>
<path d="M26 25H22V31H26V25Z" fill="black"/>
<path d="M4 2H44V-2H4V2ZM46 4V44H50V4H46ZM44 46H4V50H44V46ZM2 44V4H-2V44H2ZM4 46C2.89543 46 2 45.1046 2 44H-2C-2 47.3137 0.68629 50 4 50V46ZM46 44C46 45.1046 45.1046 46 44 46V50C47.3137 50 50 47.3137 50 44H46ZM44 2C45.1046 2 46 2.89543 46 4H50C50 0.686292 47.3137 -2 44 -2V2ZM4 -2C0.686292 -2 -2 0.68629 -2 4H2C2 2.89543 2.89543 2 4 2V-2Z" fill="black"/>
<path d="M88 29H72V31H88V29Z" fill="black"/>
<path d="M86 19V25H74V19H86ZM88 17H72V27H88V17Z" fill="black"/>
<path d="M60 2H100V-2H60V2ZM102 4V44H106V4H102ZM100 46H60V50H100V46ZM58 44V4H54V44H58ZM60 46C58.8954 46 58 45.1046 58 44H54C54 47.3137 56.6863 50 60 50V46ZM102 44C102 45.1046 101.105 46 100 46V50C103.314 50 106 47.3137 106 44H102ZM100 2C101.105 2 102 2.89543 102 4H106C106 0.686292 103.314 -2 100 -2V2ZM60 -2C56.6863 -2 54 0.68629 54 4H58C58 2.89543 58.8954 2 60 2V-2Z" fill="#E5E5E5"/>
<path d="M130 17H128V19H130V17Z" fill="black"/>
<path d="M144 17H132V19H144V17Z" fill="black"/>
<path d="M130 21H128V23H130V21Z" fill="black"/>
<path d="M144 21H132V23H144V21Z" fill="black"/>
<path d="M130 25H128V27H130V25Z" fill="black"/>
<path d="M144 25H132V27H144V25Z" fill="black"/>
<path d="M130 29H128V31H130V29Z" fill="black"/>
<path d="M144 29H132V31H144V29Z" fill="black"/>
<path d="M116 2H156V-2H116V2ZM158 4V44H162V4H158ZM156 46H116V50H156V46ZM114 44V4H110V44H114ZM116 46C114.895 46 114 45.1046 114 44H110C110 47.3137 112.686 50 116 50V46ZM158 44C158 45.1046 157.105 46 156 46V50C159.314 50 162 47.3137 162 44H158ZM156 2C157.105 2 158 2.89543 158 4H162C162 0.686292 159.314 -2 156 -2V2ZM116 -2C112.686 -2 110 0.68629 110 4H114C114 2.89543 114.895 2 116 2V-2Z" fill="#E5E5E5"/>
</svg>
